<svg xmlns="http://www.w3.org/2000/svg" viewBox="0 0 400 500" preserveAspectRatio="xMidYMid meet">
  <path d="M200 50
    C 165 50, 140 75, 135 110
    C 132 130, 138 148, 148 158
    C 145 168, 142 178, 142 192
    C 142 210, 148 225, 158 235
    C 152 245, 145 258, 138 275
    C 125 305, 115 340, 110 380
    C 108 410, 115 435, 130 450
    C 145 460, 165 462, 175 462
    L 175 470 L 165 478 L 150 478 L 145 485 L 175 485 L 200 478
    L 225 485 L 255 485 L 250 478 L 235 478 L 225 470 L 225 462
    C 235 462, 255 460, 270 450
    C 285 435, 292 410, 290 380
    C 285 340, 275 305, 262 275
    C 255 258, 248 245, 242 235
    C 252 225, 258 210, 258 192
    C 258 178, 255 168, 252 158
    C 262 148, 268 130, 265 110
    C 260 75, 235 50, 200 50 Z
    M 200 130
    C 195 130, 192 132, 190 135
    L 195 145 L 215 145 L 215 138
    C 213 132, 207 130, 200 130 Z"
    fill="currentColor"/>
</svg>
